<?xml version="1.0" encoding="utf-8"?>
<!-- Generator: Adobe Illustrator 27.2.0, SVG Export Plug-In . SVG Version: 6.00 Build 0)  -->
<svg version="1.1" xmlns="http://www.w3.org/2000/svg" xmlns:xlink="http://www.w3.org/1999/xlink" x="0px" y="0px"
	 viewBox="0 0 137.9 92.8" style="enable-background:new 0 0 137.9 92.8;" xml:space="preserve">
<style type="text/css">
	.st0{fill:#FFFFFF;stroke:#000000;stroke-miterlimit:10;}
	.st1{fill:#B70000;stroke:#000000;stroke-miterlimit:10;}
</style>
<g id="Layer_1">
	<polygon class="st0" points="0,24.8 9.4,16.5 58.6,16.5 68.3,28 14.4,28 14.4,39.1 31.2,39.1 31.2,51.6 14.5,51.6 14.5,63 58,63 
		58,53.9 70.9,53.9 70.9,75.5 0,75.5 	"/>
	<polygon class="st0" points="62.9,16.5 73,28.3 122.8,28.3 122.8,58.6 116.9,63.3 87.5,63.3 87.5,39.9 74.3,39.9 74.3,75.5 
		122.8,75.5 134.3,66.5 134.3,16.5 	"/>
	<rect class="st1" width="137.9" height="10.6"/>
	<rect y="82.2" class="st1" width="137.9" height="10.6"/>
</g>
<g id="Layer_2">
</g>
</svg>
